<?xml version="1.0" encoding="UTF-8" standalone="no"?>
<svg
   xmlns:dc="http://purl.org/dc/elements/1.1/"
   xmlns:cc="http://creativecommons.org/ns#"
   xmlns:rdf="http://www.w3.org/1999/02/22-rdf-syntax-ns#"
   xmlns:svg="http://www.w3.org/2000/svg"
   xmlns="http://www.w3.org/2000/svg"
   xmlns:sodipodi="http://sodipodi.sourceforge.net/DTD/sodipodi-0.dtd"
   xmlns:inkscape="http://www.inkscape.org/namespaces/inkscape"
   viewBox="0 0 109 24"
   version="1.1"
   id="svg25"
   sodipodi:docname="logo.svg"
   inkscape:version="0.92.4 (5da689c313, 2019-01-14)">
  <metadata
     id="metadata29">
    <rdf:RDF>
      <cc:Work
         rdf:about="">
        <dc:format>image/svg+xml</dc:format>
        <dc:type
           rdf:resource="http://purl.org/dc/dcmitype/StillImage" />
      </cc:Work>
    </rdf:RDF>
  </metadata>
  <sodipodi:namedview
     pagecolor="#ffffff"
     bordercolor="#666666"
     borderopacity="1"
     objecttolerance="10"
     gridtolerance="10"
     guidetolerance="10"
     inkscape:pageopacity="0"
     inkscape:pageshadow="2"
     inkscape:window-width="1366"
     inkscape:window-height="705"
     id="namedview27"
     showgrid="false"
     inkscape:zoom="3.6847399"
     inkscape:cx="82.200318"
     inkscape:cy="19.493555"
     inkscape:window-x="-8"
     inkscape:window-y="-8"
     inkscape:window-maximized="1"
     inkscape:current-layer="layer1" />
  <title
     id="title2">Logo</title>
  <defs
     id="defs23">
    <path
       id="b"
       d="M22.735 23.171c.283.323.053.829-.376.829h-5.907c-.285 0-.556-.121-.745-.333l-9.414-10.526v10.36c0 .276-.224.5-.5.5h-5.293c-.276 0-.5-.224-.5-.5v-23c0-.276.224-.5.5-.5h5.293c.276 0 .5.224.5.5v9.815l9.141-9.99c.19-.207.457-.325.738-.325h5.762c.437 0 .664.521.366.841l-9.851 10.563 10.287 11.767z" />
    <path
       id="c"
       d="M45.991 24c-.199 0-.38-.118-.459-.301l-2.024-4.669h-10.67l-2.024 4.669c-.079.183-.259.301-.459.301h-5.212c-.366 0-.608-.381-.453-.712l10.782-23c.082-.176.259-.288.453-.288h4.358c.194 0 .37.112.453.287l10.815 23c.156.332-.086.713-.452.713h-5.108zm-11.135-9.668h6.635l-3.317-7.694-3.317 7.694z" />
    <path
       id="d"
       d="M55.525 24c-.276 0-.5-.224-.5-.5v-23c0-.276.224-.5.5-.5h5.293c.276 0 .5.224.5.5v18.428h9.759c.276 0 .5.224.5.5v4.072c0 .276-.224.5-.5.5h-15.552z" />
    <path
       id="e"
       d="M75.279.5c0-.276.224-.5.5-.5h9.315c2.667 0 4.959.477 6.874 1.43 1.938.953 3.42 2.338 4.446 4.153 1.026 1.793 1.539 3.926 1.539 6.4 0 2.496-.513 4.652-1.539 6.468-1.003 1.793-2.474 3.166-4.412 4.119-1.915.953-4.218 1.43-6.908 1.43h-9.315c-.276 0-.5-.224-.5-.5v-23zm9.37 18.462c2.371 0 4.138-.579 5.301-1.736 1.163-1.157 1.744-2.905 1.744-5.242 0-2.338-.581-4.074-1.744-5.209-1.163-1.157-2.93-1.736-5.301-1.736h-3.078v13.923h3.078z" />
    <path
       id="f"
       d="M102.913 24c-.276 0-.5-.224-.5-.5v-23c0-.276.224-.5.5-.5h5.293c.276 0 .5.224.5.5v23c0 .276-.224.5-.5.5h-5.293z" />
    <clipPath
       id="clipPath1951"
       clipPathUnits="userSpaceOnUse">
      <path
         inkscape:connector-curvature="0"
         id="path1949"
         d="M 0,620 H 620 V 0 H 0 Z" />
    </clipPath>
    <clipPath
       id="clipPath1961"
       clipPathUnits="userSpaceOnUse">
      <path
         inkscape:connector-curvature="0"
         id="path1959"
         d="M -103.108,71.3218 H 103.108 V -71.3223 h -206.216 z" />
    </clipPath>
    <clipPath
       id="clipPath1993"
       clipPathUnits="userSpaceOnUse">
      <path
         inkscape:connector-curvature="0"
         id="path1991"
         d="M -103.108,71.3218 H 103.108 V -71.3223 h -206.216 z" />
    </clipPath>
    <clipPath
       id="clipPath2025"
       clipPathUnits="userSpaceOnUse">
      <path
         inkscape:connector-curvature="0"
         id="path2023"
         d="M -103.108,71.3218 H 103.108 V -71.3223 h -206.216 z" />
    </clipPath>
    <clipPath
       id="clipPath2057"
       clipPathUnits="userSpaceOnUse">
      <path
         inkscape:connector-curvature="0"
         id="path2055"
         d="M -103.108,71.3218 H 103.108 V -71.3223 h -206.216 z" />
    </clipPath>
    <clipPath
       id="clipPath2089"
       clipPathUnits="userSpaceOnUse">
      <path
         inkscape:connector-curvature="0"
         id="path2087"
         d="M -103.108,71.3218 H 103.108 V -71.3223 h -206.216 z" />
    </clipPath>
    <clipPath
       id="clipPath2121"
       clipPathUnits="userSpaceOnUse">
      <path
         inkscape:connector-curvature="0"
         id="path2119"
         d="M -103.108,71.3218 H 103.108 V -71.3223 h -206.216 z" />
    </clipPath>
    <clipPath
       id="clipPath2153"
       clipPathUnits="userSpaceOnUse">
      <path
         inkscape:connector-curvature="0"
         id="path2151"
         d="M -103.108,71.3218 H 103.108 V -71.3223 h -206.216 z" />
    </clipPath>
    <clipPath
       id="clipPath2185"
       clipPathUnits="userSpaceOnUse">
      <path
         inkscape:connector-curvature="0"
         id="path2183"
         d="M -103.108,71.3218 H 103.108 V -71.3223 h -206.216 z" />
    </clipPath>
  </defs>
  <g
     transform="matrix(0.16628523,0,0,-0.16628523,2.8498906,61.386717)"
     inkscape:label="ifttt-brand_logo-620x620"
     id="g1943">
    <g
       transform="matrix(3.6285386,0,0,-3.6285386,-84.094804,728.68878)"
       inkscape:label="Layer 1"
       id="layer1">
      <rect
         style="color:#000000;opacity:0.7;fill:#000080;fill-rule:evenodd;stroke:#000000;stroke-width:0.14423043"
         transform="matrix(-0.99992266,0.01243667,-0.00177012,-0.99999843,0,0)"
         x="-33.649582"
         y="-118.60222"
         width="13.328245"
         height="11.747099"
         id="rect7774"
         ry="0" />
      <rect
         style="color:#000000;opacity:0.9;fill:#ffff00;fill-rule:evenodd;stroke:#000000;stroke-width:0.13871758"
         transform="matrix(-0.99999114,-0.00420949,-5.0999662e-4,-0.99999987,0,0)"
         x="-40.604862"
         y="-126.2471"
         width="13.492171"
         height="11.916554"
         id="rect7774-0" />
      <rect
         style="color:#000000;opacity:0.95;fill:#ff0000;fill-rule:evenodd;stroke:#000000;stroke-width:0.13650455"
         transform="matrix(-0.99977115,0.02139274,-0.00175563,-0.99999846,0,0)"
         x="-46.790207"
         y="-134.57253"
         width="13.225166"
         height="11.77233"
         id="rect7774-0-4" />
      <flowRoot
         xml:space="preserve"
         id="flowRoot9082"
         style="font-style:normal;font-weight:normal;font-size:40px;line-height:1.25;font-family:sans-serif;letter-spacing:0px;word-spacing:0px;fill:#000000;fill-opacity:1;stroke:none"
         transform="matrix(0.26458333,0,0,0.26458333,-61.834287,6.6635161)"><flowRegion
           id="flowRegion9084"><rect
             id="rect9086"
             width="598.67023"
             height="253.20413"
             x="438.40622"
             y="381.06772" /></flowRegion><flowPara
           style="font-style:normal;font-variant:normal;font-weight:normal;font-stretch:normal;font-size:64px;font-family:SimHei;-inkscape-font-specification:SimHei"
           id="flowPara9090">MatrixBlend <flowSpan
   style="fill:#808000"
   id="flowSpan9153">Media</flowSpan></flowPara></flowRoot>    </g>
  </g>
</svg>
